<?xml version="1.0" encoding="UTF-8" standalone="no"?>
<svg width="442px" height="677px" viewBox="0 0 442 677" version="1.1" xmlns="http://www.w3.org/2000/svg" xmlns:xlink="http://www.w3.org/1999/xlink">
    <!-- Generator: Sketch 45.1 (43504) - http://www.bohemiancoding.com/sketch -->
    <title>Group 10</title>
    <desc>Created with Sketch.</desc>
    <defs></defs>
    <g id="Page-1" stroke="none" stroke-width="1" fill="none" fill-rule="evenodd">
        <g id="Group-10" transform="translate(0.000000, 2.000000)">
            <g id="Group-20">
                <g id="Group-19">
                    <g id="Group-18">
                        <g id="Group-17">
                            <g id="Group-16" transform="translate(130.000000, 0.000000)">
                                <rect id="Rectangle-15" fill="#F0EDED" x="13" y="546" width="158" height="129"></rect>
                                <path d="M91.0308908,345 L170.362921,546.620966 C143.491382,559.214709 117.047372,565.51158 91.0308908,565.51158 C65.0144091,565.51158 39.0041121,559.214709 13,546.620966 L91.0308908,345 Z" id="Triangle" fill="#FFFFFF"></path>
                                <rect id="Rectangle-14" fill="#F0EDED" x="53" y="324" width="76" height="120"></rect>
                                <path d="M91.5,154 C102,153.862174 102,151.089851 102,147.5 C102,143.910149 97.2989899,141 91.5,141 C85.7010101,141 81,143.910149 81,147.5 C81,151.089851 81,154.137826 91.5,154 Z" id="Oval-5" fill="#FFFFFF"></path>
                                <circle id="Oval-4" stroke="#D56F6F" stroke-width="3" fill="#FF0000" cx="82.5" cy="6.5" r="6.5"></circle>
                                <rect id="Rectangle-11" fill="#FFFFFF" x="80" y="60" width="23.2685244" height="16"></rect>
                                <g id="Group-15" transform="translate(0.000000, 78.000000)" stroke="#E4E3E3" stroke-width="4" stroke-linecap="square">
                                    <path d="M91,4 L34.5,91.5" id="Line-53"></path>
                                    <path d="M57,33.5 L57,54.5" id="Line-56"></path>
                                    <path d="M37.5,50.5 L55.5,56.5" id="Line-57"></path>
                                    <path d="M38,52.5 L38,84.5" id="Line-58"></path>
                                    <path d="M19.5,69.5 L36.5,86.5" id="Line-59"></path>
                                    <path d="M19,70.5 L19,90.5" id="Line-60"></path>
                                    <path d="M76,13.5 L76,24.5" id="Line-54"></path>
                                    <path d="M56,33 L75,26" id="Line-55"></path>
                                    <path d="M87.5,0.5 L0.5,86.5" id="Line-52"></path>
                                </g>
                                <g id="Group-12" transform="translate(141.500000, 124.000000) scale(-1, 1) translate(-141.500000, -124.000000) translate(96.000000, 78.000000)" stroke="#E4E3E3" stroke-width="4" stroke-linecap="square">
                                    <path d="M91,4 L34.5,91.5" id="Line-53"></path>
                                    <path d="M57,33.5 L57,54.5" id="Line-56"></path>
                                    <path d="M37.5,50.5 L55.5,56.5" id="Line-57"></path>
                                    <path d="M38,52.5 L38,84.5" id="Line-58"></path>
                                    <path d="M19.5,69.5 L36.5,86.5" id="Line-59"></path>
                                    <path d="M19,70.5 L19,90.5" id="Line-60"></path>
                                    <path d="M76,13.5 L76,24.5" id="Line-54"></path>
                                    <path d="M56,33 L75,26" id="Line-55"></path>
                                    <path d="M87.5,0.5 L0.5,86.5" id="Line-52"></path>
                                </g>
                            </g>
                            <path d="M2.5,189.5 L2.5,202.5" id="Line-24" stroke="#FFFFFF" stroke-width="5" stroke-linecap="square"></path>
                            <path d="M439.5,202.5 L439.5,189.5" id="Line-30" stroke="#FFFFFF" stroke-width="5" stroke-linecap="square"></path>
                            <rect id="Rectangle-10" fill="#F3F3F3" x="172" y="275" width="99" height="49"></rect>
                            <path d="M0,190.219096 C97.086415,253.670961 170.753082,285.396894 221,285.396894 C271.246918,285.396894 344.913585,253.670961 442,190.219096" id="Path-5" fill="#EBEBEB"></path>
                            <path d="M197,76 C207.455578,84.5744233 215.389,88.8616349 220.800268,88.8616349 C226.211536,88.8616349 234.144958,84.5744233 244.600536,76" id="Path-5" fill="#FFFFFF"></path>
                            <g id="Group-13" transform="translate(0.000000, 159.000000)">
                                <polyline id="Path-7" stroke="#F7F7F7" stroke-width="4" points="87.9426292 96.4325641 118.138556 104.062896 141.970339 109.430913 204.578022 116.49456 239.86305 116.49456 292.102159 112.235564 345.749127 96.4325641 373.915168 83.1663674"></polyline>
                                <path d="M104.5,65.5 L104.5,50.5" id="Line-38" stroke="#FFFFFF" stroke-width="5" stroke-linecap="square"></path>
                                <path d="M180.5,68.5 L180.5,58.5" id="Line-39" stroke="#FFFFFF" stroke-width="5" stroke-linecap="square"></path>
                                <path d="M260.5,71.5 L260.5,58.5" id="Line-40" stroke="#FFFFFF" stroke-width="5" stroke-linecap="square"></path>
                                <path d="M328.5,67.5 L328.5,52.5" id="Line-41" stroke="#FFFFFF" stroke-width="5" stroke-linecap="square"></path>
                                <path d="M391.5,59.5 L391.5,47.5" id="Line-42" stroke="#FFFFFF" stroke-width="5" stroke-linecap="square"></path>
                                <path d="M54.5,58.5 L54.5,48.5" id="Line-37" stroke="#FFFFFF" stroke-width="5" stroke-linecap="square"></path>
                                <ellipse id="Oval-3" fill="#F9F9F9" cx="221" cy="29.5" rx="221" ry="29.5"></ellipse>
                                <path d="M390,60 L316,118" id="Line-34" stroke="#FFFFFF" stroke-width="4" stroke-linecap="square"></path>
                                <path d="M328,68 L268.5,138.5" id="Line-33" stroke="#FFFFFF" stroke-width="4" stroke-linecap="square"></path>
                                <path d="M260,71 L222,147" id="Line-36" stroke="#FFFFFF" stroke-width="4" stroke-linecap="square"></path>
                                <path d="M180.5,71.5 L219,143" id="Line-35" stroke="#FFFFFF" stroke-width="4" stroke-linecap="square"></path>
                                <path d="M104.5,67.5 L165.5,134.5" id="Line-32" stroke="#FFFFFF" stroke-width="4" stroke-linecap="square"></path>
                                <path d="M52.5,59.5 L166.5,135.5" id="Line-31" stroke="#FFFFFF" stroke-width="4" stroke-linecap="square"></path>
                            </g>
                            <g id="Group-9" transform="translate(4.000000, 202.000000)" stroke="#FBF9F9" stroke-width="5" stroke-linecap="square">
                                <path d="M0.5,0.5 L44.5,14.5" id="Line-26"></path>
                                <path d="M389.5,0.5 L432.5,14.5" id="Line-26" transform="translate(411.000000, 7.500000) scale(-1, 1) translate(-411.000000, -7.500000) "></path>
                                <path d="M48.5,15.5 L110.5,23.5" id="Line-27"></path>
                                <path d="M324.5,15.5 L386.5,23.5" id="Line-27" transform="translate(355.500000, 19.500000) scale(-1, 1) translate(-355.500000, -19.500000) "></path>
                                <path d="M110.5,23.5 L175.5,27.5" id="Line-28"></path>
                                <path d="M258.5,23.5 L323.5,27.5" id="Line-28" transform="translate(291.000000, 25.500000) scale(-1, 1) translate(-291.000000, -25.500000) "></path>
                                <path d="M177.5,27.5 L254.5,27.5" id="Line-29"></path>
                            </g>
                            <g id="Group-8" transform="translate(3.000000, 203.000000)" stroke="#FFFFFF" stroke-width="5">
                                <path d="M0.5,0.509803922 L121.5,72.9019608" id="Line-25" stroke-linecap="square"></path>
                                <path d="M316.5,1.5 L435.5,72.5" id="Line-25" stroke-linecap="square" transform="translate(376.000000, 37.000000) scale(-1, 1) translate(-376.000000, -37.000000) "></path>
                                <polyline id="Path-6" points="122.955747 73.5408258 168.961456 95.4847335 218.848503 103.460439 264.644086 95.4847335 314.741258 73.5408258"></polyline>
                            </g>
                        </g>
                        <rect id="Rectangle-13" fill="#FFFFFF" x="211" y="148.939723" width="21" height="49.0602771"></rect>
                        <path d="M213,65.5 L213,17.5" id="Line-61" stroke="#FFFFFF" stroke-width="4" stroke-linecap="square"></path>
                        <path d="M48.5,167.5 L54.5,205.5" id="Line-51" stroke="#FFFFFF" stroke-width="5" stroke-linecap="square"></path>
                        <path d="M49.5,167.5 L82.5,182.5" id="Line-50" stroke="#FFFFFF" stroke-width="5" stroke-linecap="square"></path>
                        <path d="M82.5,147.5 L84.5,178.5" id="Line-49" stroke="#FFFFFF" stroke-width="5" stroke-linecap="square"></path>
                        <path d="M84.5,145.5 L119.5,147.5" id="Line-48" stroke="#FFFFFF" stroke-width="5" stroke-linecap="square"></path>
                        <path d="M120.5,126.5 L120.5,147.5" id="Line-47" stroke="#FFFFFF" stroke-width="5" stroke-linecap="square"></path>
                        <path d="M213.5,68.5 L55.5,207.5" id="Line-44" stroke="#FFFFFF" stroke-width="5" stroke-linecap="square"></path>
                        <path d="M155.5,103.5 L155.5,117.5" id="Line-45" stroke="#FFFFFF" stroke-width="5" stroke-linecap="square"></path>
                        <path d="M122.5,123.5 L156.5,117.5" id="Line-46" stroke="#FFFFFF" stroke-width="5" stroke-linecap="square"></path>
                        <path d="M212.5,66.5 L3.5,190.5" id="Line-43" stroke="#FFFFFF" stroke-width="5" stroke-linecap="square"></path>
                    </g>
                    <g id="Group-11" transform="translate(3.000000, 66.000000)"></g>
                    <path d="M391.5,167.5 L397.5,205.5" id="Line-51" stroke="#FFFFFF" stroke-width="5" stroke-linecap="square" transform="translate(394.500000, 186.500000) scale(-1, 1) translate(-394.500000, -186.500000) "></path>
                    <path d="M363.5,167.5 L396.5,182.5" id="Line-50" stroke="#FFFFFF" stroke-width="5" stroke-linecap="square" transform="translate(380.000000, 175.000000) scale(-1, 1) translate(-380.000000, -175.000000) "></path>
                    <path d="M361.5,147.5 L363.5,178.5" id="Line-49" stroke="#FFFFFF" stroke-width="5" stroke-linecap="square" transform="translate(362.500000, 163.000000) scale(-1, 1) translate(-362.500000, -163.000000) "></path>
                    <path d="M326.5,145.5 L361.5,147.5" id="Line-48" stroke="#FFFFFF" stroke-width="5" stroke-linecap="square" transform="translate(344.000000, 146.500000) scale(-1, 1) translate(-344.000000, -146.500000) "></path>
                    <path d="M325.5,126.5 L325.5,147.5" id="Line-47" stroke="#FFFFFF" stroke-width="5" stroke-linecap="square" transform="translate(325.500000, 137.000000) scale(-1, 1) translate(-325.500000, -137.000000) "></path>
                    <path d="M390.5,69.5 L231.5,207.5" id="Line-44" stroke="#FFFFFF" stroke-width="5" stroke-linecap="square" transform="translate(311.000000, 138.500000) scale(-1, 1) translate(-311.000000, -138.500000) "></path>
                    <path d="M290.5,103.5 L290.5,117.5" id="Line-45" stroke="#FFFFFF" stroke-width="5" stroke-linecap="square" transform="translate(290.500000, 110.500000) scale(-1, 1) translate(-290.500000, -110.500000) "></path>
                    <path d="M289.5,123.5 L323.5,117.5" id="Line-46" stroke="#FFFFFF" stroke-width="5" stroke-linecap="square" transform="translate(306.500000, 120.500000) scale(-1, 1) translate(-306.500000, -120.500000) "></path>
                    <path d="M438.5,68.5 L232.5,189.5" id="Line-43" stroke="#FFFFFF" stroke-width="5" stroke-linecap="square" transform="translate(335.500000, 129.000000) scale(-1, 1) translate(-335.500000, -129.000000) "></path>
                </g>
                <g id="Group-14" transform="translate(231.000000, 68.000000)"></g>
                <rect id="Rectangle-12" fill="#FFFFFF" x="217" y="42" width="8" height="21"></rect>
            </g>
        </g>
    </g>
</svg>