<?xml version="1.0" encoding="UTF-8" standalone="no"?>
<svg width="649px" height="378px" viewBox="0 0 649 378" version="1.1" xmlns="http://www.w3.org/2000/svg" xmlns:xlink="http://www.w3.org/1999/xlink">
    <!-- Generator: Sketch 45.1 (43504) - http://www.bohemiancoding.com/sketch -->
    <title>Group 27</title>
    <desc>Created with Sketch.</desc>
    <defs>
        <polygon id="path-1" points="258.131892 168.423051 304.144961 170.066472 298.422996 181.798238 252.101825 180.78652"></polygon>
        <polygon id="path-2" points="228.76799 68.1487893 244.878252 63.5664763 247.299843 77.3064661 231.361177 82.4944442"></polygon>
        <polygon id="path-3" points="246.218312 62.4442099 262.328575 57.8618968 264.750166 71.6018866 248.811499 76.7898647"></polygon>
        <polygon id="path-4" points="272.004992 54.332729 288.115254 49.750416 290.536845 63.4904058 274.598179 68.6783839"></polygon>
        <polygon id="path-5" points="289.309484 48.9250751 305.419747 44.3427621 307.841338 58.0827519 291.902671 63.27073"></polygon>
    </defs>
    <g id="Page-1" stroke="none" stroke-width="1" fill="none" fill-rule="evenodd">
        <g id="Group-27" transform="translate(-1.000000, -9.000000)">
            <polygon id="Rectangle-32" fill="#CFD1D4" points="412.063228 109.234609 422.33777 104.000056 432.612313 109.234609 432.612313 126.155248 422.33777 129.617282 412.063228 126.155248"></polygon>
            <g id="Rectangle-33" transform="translate(278.123393, 175.110644) rotate(-26.000000) translate(-278.123393, -175.110644) ">
                <use fill="#425477" fill-rule="evenodd" xlink:href="#path-1"></use>
                <path stroke="#979797" stroke-width="1" d="M258.438825,168.934332 L252.893616,180.303695 L298.113912,181.291368 L303.358341,170.538695 L258.438825,168.934332 Z"></path>
            </g>
            <polygon id="Rectangle-30" fill="#CFD1D4" points="206.572379 140.599002 224.930881 132.771818 241.927023 140.599002 243.289382 162.002451 218.445664 170.538315 206.572379 162.002451"></polygon>
            <polygon id="Rectangle-31" fill="#CFD1D4" points="219.009983 181.250476 237.278926 174.110408 251.996672 181.250476 251.996672 201.133314 229.118848 208.399046 219.009983 203.301671"></polygon>
            <g id="Group-25" transform="translate(0.000000, 84.900166)">
                <path d="M3.51497504,53.8061564 L27.8494176,46.2354409" id="Line-21" stroke="#979797" stroke-width="3" stroke-linecap="square"></path>
                <polygon id="Rectangle-27" fill="#7080B5" transform="translate(44.077586, 93.903851) rotate(-36.000000) translate(-44.077586, -93.903851) " points="35.4785908 38.4557393 57.9742661 45.6521845 57.9820952 149.351962 30.1730768 142.482411"></polygon>
                <polygon id="Rectangle-27" fill="#7183BE" transform="translate(81.395597, 79.839436) rotate(-36.000000) translate(-81.395597, -79.839436) " points="67.4844168 24.0899669 71.0547978 25.3255644 90.3584599 32.0059598 95.3067766 135.588905 68.7757795 128.700073"></polygon>
                <polygon id="Rectangle-27" fill="#7589C8" transform="translate(119.992397, 65.697709) rotate(-36.000000) translate(-119.992397, -65.697709) " points="104.044617 10.9906022 126.377994 18.4451311 135.940178 120.404815 111.529547 113.747071"></polygon>
                <polygon id="Rectangle-27" fill="#7B90D5" transform="translate(152.924330, 54.746252) rotate(-36.000000) translate(-152.924330, -54.746252) " points="135.064082 0.399055816 155.762744 6.58568364 170.784578 109.093448 147.210289 102.746188"></polygon>
                <path d="M73.8144759,30.5532446 L98.1489185,22.9825291" id="Line-21" stroke="#979797" stroke-width="3" stroke-linecap="square"></path>
                <path d="M106.260399,20.8194676 L127.891015,13.7895175" id="Line-21" stroke="#979797" stroke-width="3" stroke-linecap="square"></path>
                <path d="M61.6472546,141.680532 L88.4151414,130.594842" id="Line-21" stroke="#979797" stroke-width="4" stroke-linecap="square"></path>
                <path d="M99.5008319,127.079867 L126.268719,115.994176" id="Line-21" stroke="#979797" stroke-width="4" stroke-linecap="square"></path>
                <path d="M141.139767,109.775374 L167.907654,98.6896839" id="Line-21" stroke="#979797" stroke-width="4" stroke-linecap="square"></path>
                <path d="M176.830283,96.2562396 L203.59817,85.1705491" id="Line-21" stroke="#979797" stroke-width="4" stroke-linecap="square"></path>
                <path d="M36.5016639,42.4500832 L60.8361065,34.8793677" id="Line-21" stroke="#979797" stroke-width="3" stroke-linecap="square"></path>
            </g>
            <g id="Group-26" transform="translate(74.625624, 177.371048)">
                <path d="M1.62229617,71.921797 L28.390183,60.8361065" id="Line-21" stroke="#979797" stroke-width="4" stroke-linecap="square"></path>
                <path d="M40.5574043,56.7803661 L67.3252912,45.6946755" id="Line-21" stroke="#979797" stroke-width="4" stroke-linecap="square"></path>
                <path d="M81.655574,40.0166389 L108.423461,28.9309484" id="Line-21" stroke="#979797" stroke-width="4" stroke-linecap="square"></path>
                <path d="M118.427621,25.4159734 L145.195507,14.3302829" id="Line-21" stroke="#979797" stroke-width="4" stroke-linecap="square"></path>
                <polygon id="Rectangle-11" fill="#546A93" transform="translate(60.917276, 134.794646) rotate(-35.000000) translate(-60.917276, -134.794646) " points="46.7197051 53.7203298 76.3586288 60.4388261 78.3165122 215.868961 43.5180399 211.514838"></polygon>
                <polygon id="Rectangle-11" fill="#546A93" transform="translate(103.119852, 113.688744) rotate(-35.000000) translate(-103.119852, -113.688744) " points="84.5443545 34.4199508 112.319048 40.8364538 121.69535 192.957538 89.0202762 189.402523"></polygon>
                <polygon id="Rectangle-11" fill="#546A93" transform="translate(148.829635, 93.499022) rotate(-35.000000) translate(-148.829635, -93.499022) " points="126.772972 15.8684005 152.460666 21.0202221 170.886298 171.129644 140.876477 167.696458"></polygon>
                <polygon id="Rectangle-11" fill="#546A93" transform="translate(185.704217, 76.695396) rotate(-35.000000) translate(-185.704217, -76.695396) " points="161.378496 0.417995233 186.772254 5.5966316 210.029937 152.972798 182.057291 149.321594"></polygon>
                <path d="M90.0374376,207.383527 L120.861065,191.160566" id="Line-21" stroke="#B9BFCD" stroke-width="3" stroke-linecap="square"></path>
                <path d="M135.46173,183.049085 L166.285358,166.826123" id="Line-21" stroke="#B9BFCD" stroke-width="3" stroke-linecap="square"></path>
                <path d="M184.671381,158.173877 L211.830459,144.072048" id="Line-21" stroke="#B9BFCD" stroke-width="3" stroke-linecap="square"></path>
                <path d="M224.147255,138.706323 L250.227886,125.144395" id="Line-21" stroke="#B9BFCD" stroke-width="3" stroke-linecap="square"></path>
            </g>
            <polygon id="Rectangle-12" fill="#536893" transform="translate(512.159850, 138.651000) rotate(-59.000000) translate(-512.159850, -138.651000) " points="505.395922 63.753877 519.538206 73.8121223 520.472758 213.548123 503.846942 203.086492"></polygon>
            <polygon id="Rectangle-12" fill="#536893" transform="translate(535.675759, 127.161611) rotate(-59.000000) translate(-535.675759, -127.161611) " points="527.069143 52.966558 540.715921 63.3907628 544.282375 201.356663 528.594889 191.456158"></polygon>
            <polygon id="Rectangle-12" fill="#536893" transform="translate(560.977315, 114.965097) rotate(-59.000000) translate(-560.977315, -114.965097) " points="551.071993 41.4119557 564.725388 52.4540869 570.882637 188.518238 555.751218 180.210273"></polygon>
            <polygon id="Rectangle-12" fill="#536893" transform="translate(581.865953, 105.218335) rotate(-59.000000) translate(-581.865953, -105.218335) " points="570.864587 32.669322 583.89562 42.4676332 592.867319 177.767348 578.300509 169.671786"></polygon>
            <polygon id="Rectangle-12" fill="#8A9EDD" transform="translate(404.690859, 52.275465) rotate(-59.000000) translate(-404.690859, -52.275465) " points="397.776342 -4.41930212 409.300771 5.77469479 411.605377 108.970233 398.660191 98.5489042"></polygon>
            <polygon id="Rectangle-12" fill="#8A9EDD" transform="translate(382.748949, 60.817660) rotate(-59.000000) translate(-382.748949, -60.817660) " points="377.170882 4.40071273 389.286917 15.6462298 389.112737 117.234608 376.210982 107.813116"></polygon>
            <path d="M331.218802,36.5016639 L348.523295,31.6347754" id="Line-43" stroke="#979797" stroke-width="2" stroke-linecap="square"></path>
            <path d="M351.767887,28.9309484 L369.072379,24.0640599" id="Line-43" stroke="#979797" stroke-width="2" stroke-linecap="square"></path>
            <polygon id="Rectangle-12" fill="#8A9EDD" transform="translate(430.158328, 44.075475) rotate(-59.000000) translate(-430.158328, -44.075475) " points="422.139097 -12.4951917 433.453844 -3.3016334 438.17756 100.646141 425.817887 91.3834394"></polygon>
            <polygon id="Rectangle-12" fill="#8A9EDD" transform="translate(449.416273, 36.026395) rotate(-59.000000) translate(-449.416273, -36.026395) " points="440.635106 -19.308282 452.132506 -9.3791847 458.197441 91.3610716 446.425929 82.3896058"></polygon>
            <path d="M377.18386,21.3602329 L393.446415,16.7863894" id="Line-43" stroke="#979797" stroke-width="2" stroke-linecap="square"></path>
            <path d="M397.462562,14.848386 L413.725117,10.2745424" id="Line-43" stroke="#979797" stroke-width="2" stroke-linecap="square"></path>
            <path d="M457.757903,96.5266223 L441.534942,103.015807" id="Line-44" stroke="#9A9898" stroke-width="3" stroke-linecap="square"></path>
            <path d="M481.551581,86.7928453 L465.328619,93.28203" id="Line-44" stroke="#9A9898" stroke-width="3" stroke-linecap="square"></path>
            <path d="M506.426789,76.5183028 L490.203827,83.0074875" id="Line-44" stroke="#9A9898" stroke-width="3" stroke-linecap="square"></path>
            <polygon id="Rectangle-13" fill="#7D8ED6" transform="translate(219.108307, 131.441349) rotate(-48.000000) translate(-219.108307, -131.441349) " points="213.550111 91.1155883 226.374981 97.7086928 225.883181 171.767109 211.841632 164.524273"></polygon>
            <polygon id="Rectangle-13" fill="#7D8ED6" transform="translate(235.155025, 125.456557) rotate(-48.000000) translate(-235.155025, -125.456557) " points="229.329155 84.9496342 241.989516 91.6633198 242.175799 165.96348 228.134251 158.720644"></polygon>
            <polygon id="Rectangle-13" fill="#7D8ED6" transform="translate(252.011261, 119.225955) rotate(-48.000000) translate(-252.011261, -119.225955) " points="245.50383 78.4811905 258.344501 85.3086128 259.032036 159.970719 244.990487 152.727883"></polygon>
            <polygon id="Rectangle-13" fill="#7D8ED6" transform="translate(326.244538, 92.599823) rotate(-48.000000) translate(-326.244538, -92.599823) " points="315.83605 52.8625719 326.995202 59.6157056 336.653026 132.337075 324.641351 124.454809"></polygon>
            <polygon id="Rectangle-13" fill="#7D8ED6" transform="translate(341.294128, 87.607322) rotate(-48.000000) translate(-341.294128, -87.607322) " points="330.67468 48.7236067 342.056959 54.8429685 351.913576 126.491038 340.032372 119.879183"></polygon>
            <polygon id="Rectangle-13" fill="#7D8ED6" transform="translate(355.236970, 82.566649) rotate(-48.000000) translate(-355.236970, -82.566649) " points="344.671883 44.0789903 356.439493 50.3303639 365.802057 121.054307 354.778864 115.810294"></polygon>
            <g id="Rectangle-28">
                <use fill="#536B99" fill-rule="evenodd" xlink:href="#path-2"></use>
                <path stroke="#979797" stroke-width="1" d="M229.340618,68.5057465 L231.751278,81.8416475 L246.732037,76.9654644 L244.482026,64.199009 L229.340618,68.5057465 Z"></path>
            </g>
            <g id="Rectangle-28">
                <use fill="#536B99" fill-rule="evenodd" xlink:href="#path-3"></use>
                <path stroke="#979797" stroke-width="1" d="M246.790941,62.801167 L249.2016,76.1370681 L264.18236,71.260885 L261.932349,58.4944296 L246.790941,62.801167 Z"></path>
            </g>
            <g id="Rectangle-28">
                <use fill="#536B99" fill-rule="evenodd" xlink:href="#path-4"></use>
                <path stroke="#979797" stroke-width="1" d="M272.57762,54.6896862 L274.98828,68.0255872 L289.969039,63.1494042 L287.719028,50.3829487 L272.57762,54.6896862 Z"></path>
            </g>
            <g id="Rectangle-28">
                <use fill="#536B99" fill-rule="evenodd" xlink:href="#path-5"></use>
                <path stroke="#979797" stroke-width="1" d="M289.882113,49.2820323 L292.292772,62.6179333 L307.273532,57.7417502 L305.023521,44.9752948 L289.882113,49.2820323 Z"></path>
            </g>
            <path d="M228.473378,75.9775374 L306.884359,51.1023295" id="Line-46" stroke="#979797" stroke-width="2" stroke-linecap="square"></path>
            <path d="M327.120772,168.702515 L424.551443,168.702515 C425.823253,173.572674 426.459158,177.084466 426.459158,179.237892 C426.459158,181.391319 425.823253,185.210088 424.551443,190.6942 L327.120772,190.6942 C325.226561,185.985858 324.279455,182.37685 324.279455,179.867174 C324.279455,177.357499 325.226561,173.635946 327.120772,168.702515 Z" id="Rectangle-29" fill="#CFD1D4" transform="translate(375.369307, 179.698357) rotate(-23.000000) translate(-375.369307, -179.698357) "></path>
            <path d="M222.823362,124.240393 L399.169539,124.240393 C401.471472,129.110552 402.622439,132.622344 402.622439,134.775771 C402.622439,136.929197 401.471472,140.747966 399.169539,146.232078 L222.823362,146.232078 C219.394904,141.523736 217.680675,137.914728 217.680675,135.405053 C217.680675,132.895377 219.394904,129.173824 222.823362,124.240393 Z" id="Rectangle-29" fill="#CFD1D4" transform="translate(310.151557, 135.236236) rotate(-140.000000) translate(-310.151557, -135.236236) "></path>
            <path d="M98.6896839,225.228785 L499.396839,70.0291181" id="Line-45" stroke="#979797" stroke-width="22" stroke-linecap="square"></path>
            <path d="M528.057404,68.406822 L511.834443,74.8960067" id="Line-44" stroke="#9A9898" stroke-width="3" stroke-linecap="square"></path>
        </g>
    </g>
</svg>