<?xml version="1.0" encoding="UTF-8" standalone="no"?>
<svg width="345px" height="345px" viewBox="0 0 345 345" version="1.1" xmlns="http://www.w3.org/2000/svg" xmlns:xlink="http://www.w3.org/1999/xlink">
    <!-- Generator: Sketch 45.1 (43504) - http://www.bohemiancoding.com/sketch -->
    <title>Group 21</title>
    <desc>Created with Sketch.</desc>
    <defs>
        <path d="M99.2896099,89.6579532 L159.679726,56.7369199 C171.43809,57.3874084 180.697863,59.1436505 187.459045,62.0056461 C194.220226,64.8676417 203.44304,71.7043895 215.127488,82.5158894 L215.127488,133.855003 L157.208549,156.586425 L99.2896099,138.137945 L99.2896099,89.6579532 Z" id="path-1"></path>
        <linearGradient x1="50%" y1="3.03132972%" x2="50%" y2="100%" id="linearGradient-2">
            <stop stop-color="#474B96" offset="0%"></stop>
            <stop stop-color="#7280A3" offset="100%"></stop>
        </linearGradient>
        <polygon id="path-3" points="0 31.3888868 20.0943258 21.276345 20.0943258 64.8999951 0 74.9381479"></polygon>
        <polygon id="path-4" points="20.0943258 20.7507143 40.1886516 10.6381725 40.1886516 54.2618226 20.0943258 64.2999755"></polygon>
        <polygon id="path-5" points="40.1886516 10.1125418 60.2829774 0 60.2829774 43.6236501 40.1886516 53.661803"></polygon>
        <radialGradient cx="93.0392027%" cy="66.9543582%" fx="93.0392027%" fy="66.9543582%" r="72.4849532%" gradientTransform="translate(0.930392,0.669544),scale(1.000000,0.649604),rotate(-174.068966),scale(1.000000,0.450351),translate(-0.930392,-0.669544)" id="radialGradient-6">
            <stop stop-color="#849AC6" offset="0%"></stop>
            <stop stop-color="#4A6DAD" offset="57.8459747%"></stop>
            <stop stop-color="#2D4899" offset="100%"></stop>
        </radialGradient>
        <polygon id="path-7" points="3.47931946e-16 0 50.1422779 29.0584145 50.1422779 77.1889634 0 49.585759"></polygon>
        <radialGradient cx="93.6395023%" cy="40.8627569%" fx="93.6395023%" fy="40.8627569%" r="239.487595%" gradientTransform="translate(0.936395,0.408628),scale(1.000000,0.673347),rotate(-171.337465),scale(1.000000,0.207526),translate(-0.936395,-0.408628)" id="radialGradient-8">
            <stop stop-color="#FFFFFF" offset="0%"></stop>
            <stop stop-color="#4364A8" offset="57.8459747%"></stop>
            <stop stop-color="#2D4899" offset="100%"></stop>
        </radialGradient>
        <polygon id="path-9" points="48.4627858 28.36846 98.6050636 56.4022472 98.6050636 102.835667 48.4627858 76.2057781"></polygon>
        <radialGradient cx="97.3466908%" cy="69.1986839%" fx="97.3466908%" fy="69.1986839%" r="65.3453799%" gradientTransform="translate(0.973467,0.691987),scale(1.000000,0.667817),rotate(-146.487126),scale(1.000000,0.450351),translate(-0.973467,-0.691987)" id="radialGradient-10">
            <stop stop-color="#768EBF" offset="0%"></stop>
            <stop stop-color="#4A6DAD" offset="57.8459747%"></stop>
            <stop stop-color="#2D4899" offset="100%"></stop>
        </radialGradient>
        <polygon id="path-11" points="3.57687047e-16 0 51.5481361 29.0584145 51.5481361 77.1889634 0 49.585759"></polygon>
        <radialGradient cx="100%" cy="92.0982055%" fx="100%" fy="92.0982055%" r="237.498115%" gradientTransform="translate(1.000000,0.920982),scale(1.000000,0.692226),rotate(-139.408176),scale(1.000000,0.207526),translate(-1.000000,-0.920982)" id="radialGradient-12">
            <stop stop-color="#FFFFFF" offset="0%"></stop>
            <stop stop-color="#4364A8" offset="57.8459747%"></stop>
            <stop stop-color="#2F4B9B" offset="95.5920991%"></stop>
            <stop stop-color="#2D4899" offset="100%"></stop>
        </radialGradient>
        <polygon id="path-13" points="49.8215555 28.36846 101.369692 56.4022472 101.369692 102.835667 49.8215555 76.2057781"></polygon>
    </defs>
    <g id="Page-1" stroke="none" stroke-width="1" fill="none" fill-rule="evenodd">
        <g id="Group-21" transform="translate(2.859572, 77.490057)">
            <g id="Rectangle-7">
                <use fill="#979797" fill-rule="evenodd" xlink:href="#path-1"></use>
                <path stroke="#979797" stroke-width="1" d="M99.7896099,89.9548519 L99.7896099,137.772455 L157.19114,156.056128 L214.627488,133.514108 L214.627488,82.7345553 C203.058213,72.0450866 193.928535,65.2871202 187.264138,62.4660932 C180.590655,59.6412199 171.432098,57.8978676 159.794043,57.2440694 L99.7896099,89.9548519 Z"></path>
            </g>
            <g id="Group-19" transform="translate(115.837878, 127.658070)" stroke="#979797" fill="#D8D8D8">
                <ellipse id="Oval-7" cx="14.7752396" cy="6.33224553" rx="14.7752396" ry="6.33224553"></ellipse>
                <ellipse id="Oval-7" cx="14.18423" cy="9.79387309" rx="11.8201917" ry="5.06579642"></ellipse>
                <ellipse id="Oval-7" cx="14.18423" cy="12.3267713" rx="9.45615332" ry="4.05263714"></ellipse>
                <ellipse id="Oval-7" cx="14.18423" cy="15.3662492" rx="8.27413416" ry="3.5460575"></ellipse>
            </g>
            <g id="Group-19" transform="translate(174.938837, 135.932204)" stroke="#979797" fill="#D8D8D8">
                <ellipse id="Oval-7" cx="10.3335059" cy="4.42864538" rx="10.3335059" ry="4.42864538"></ellipse>
                <ellipse id="Oval-7" cx="9.92016566" cy="6.84963819" rx="8.26680471" ry="3.54291631"></ellipse>
                <ellipse id="Oval-7" cx="9.92016566" cy="8.62109634" rx="6.61344377" ry="2.83433304"></ellipse>
                <ellipse id="Oval-7" cx="9.92016566" cy="10.7468461" rx="5.7867633" ry="2.48004141"></ellipse>
            </g>
            <g id="Group-19" transform="translate(135.932204, 112.291821)" stroke="#979797" fill="#D8D8D8">
                <ellipse id="Oval-7" cx="26.3989747" cy="9.35624568" rx="25.87566" ry="9.15485505"></ellipse>
                <ellipse id="Oval-7" cx="26.3989747" cy="13.9336732" rx="20.700528" ry="7.32388404"></ellipse>
                <ellipse id="Oval-7" cx="26.3989747" cy="19.4265862" rx="18.112962" ry="6.40839853"></ellipse>
            </g>
            <g id="Group-18" transform="translate(99.289610, 56.736920)">
                <g id="Rectangle-6">
                    <use fill="url(#linearGradient-2)" fill-rule="evenodd" xlink:href="#path-3"></use>
                    <path stroke="#979797" stroke-width="1" d="M0.5,31.6970064 L0.5,74.1294554 L19.5943258,64.5908541 L19.5943258,22.0877182 L0.5,31.6970064 Z"></path>
                </g>
                <g id="Rectangle-6">
                    <use fill="url(#linearGradient-2)" fill-rule="evenodd" xlink:href="#path-4"></use>
                    <path stroke="#979797" stroke-width="1" d="M20.5943258,21.0588339 L20.5943258,63.4912829 L39.6886516,53.9526816 L39.6886516,11.4495457 L20.5943258,21.0588339 Z"></path>
                </g>
                <g id="Rectangle-6">
                    <use fill="url(#linearGradient-2)" fill-rule="evenodd" xlink:href="#path-5"></use>
                    <path stroke="#979797" stroke-width="1" d="M40.6886516,10.4206615 L40.6886516,52.8531104 L59.7829774,43.3145091 L59.7829774,0.811373214 L40.6886516,10.4206615 Z"></path>
                </g>
            </g>
            <g id="Group-20">
                <g id="Group-17" transform="translate(99.289610, 56.736920)" stroke="#979797" stroke-width="2" stroke-linecap="square">
                    <path d="M1.18201917,2.36403833 L1.18201917,42.9909421" id="Line-19"></path>
                    <path d="M2.95504791,23.2921891 L10.6381725,39.4093507" id="Line-17"></path>
                    <path d="M10.0471629,13.7412786 L2.95504791,23.2921891" id="Line-18"></path>
                    <path d="M11.8201917,16.5482683 L11.8201917,38.2154868" id="Line-16"></path>
                    <path d="M0,0 L27.1864408,34.6338954" id="Line-14"></path>
                    <path d="M1.18201917,42.9909421 L27.1864408,35.460575" id="Line-15"></path>
                </g>
                <g id="Group-13">
                    <g id="Group-16">
                        <g id="Rectangle-5">
                            <use fill="url(#radialGradient-6)" fill-rule="evenodd" xlink:href="#path-7"></use>
                            <path stroke="#979797" stroke-width="1" d="M0.5,0.867652891 L0.5,49.2902523 L49.6422779,76.3429591 L49.6422779,29.3465481 L0.5,0.867652891 Z"></path>
                        </g>
                        <g id="Rectangle-5">
                            <use fill="url(#radialGradient-8)" fill-rule="evenodd" xlink:href="#path-9"></use>
                            <path stroke="#979797" stroke-width="1" d="M48.9627858,29.2208409 L48.9627858,75.9051825 L98.1050636,102.003985 L98.1050636,56.6955433 L48.9627858,29.2208409 Z"></path>
                        </g>
                    </g>
                </g>
            </g>
            <g id="Group-20" transform="translate(274.314780, 165.889257) rotate(182.000000) translate(-274.314780, -165.889257) translate(208.814780, 114.389257)">
                <g id="Group-17" transform="translate(102.073431, 56.736920)" stroke="#979797" stroke-width="2" stroke-linecap="square">
                    <path d="M1.21515989,2.36403833 L1.21515989,42.9909421" id="Line-19"></path>
                    <path d="M3.03789972,23.2921891 L10.936439,39.4093507" id="Line-17"></path>
                    <path d="M10.3288591,13.7412786 L3.03789972,23.2921891" id="Line-18"></path>
                    <path d="M12.1515989,16.5482683 L12.1515989,38.2154868" id="Line-16"></path>
                    <path d="M0,0 L27.9486775,34.6338954" id="Line-14"></path>
                    <path d="M1.21515989,42.9909421 L27.9486775,35.460575" id="Line-15"></path>
                </g>
                <g id="Group-13">
                    <g id="Group-16">
                        <g id="Rectangle-5">
                            <use fill="url(#radialGradient-10)" fill-rule="evenodd" xlink:href="#path-11"></use>
                            <path stroke="#979797" stroke-width="1" d="M0.5,0.855828697 L0.5,49.2863275 L51.0481361,76.3540479 L51.0481361,29.350529 L0.5,0.855828697 Z"></path>
                        </g>
                        <g id="Rectangle-5">
                            <use fill="url(#radialGradient-12)" fill-rule="evenodd" xlink:href="#path-13"></use>
                            <path stroke="#979797" stroke-width="1" d="M50.3215555,29.2095355 L50.3215555,75.9013009 L100.869692,102.014588 L100.869692,56.6994857 L50.3215555,29.2095355 Z"></path>
                        </g>
                    </g>
                </g>
            </g>
        </g>
    </g>
</svg>