<?xml version="1.0" encoding="UTF-8" standalone="no"?>
<svg width="345px" height="345px" viewBox="0 0 345 345" version="1.1" xmlns="http://www.w3.org/2000/svg" xmlns:xlink="http://www.w3.org/1999/xlink">
    <!-- Generator: Sketch 45.1 (43504) - http://www.bohemiancoding.com/sketch -->
    <title>Group 24</title>
    <desc>Created with Sketch.</desc>
    <defs>
        <linearGradient x1="24.0348272%" y1="16.9665481%" x2="62.3889641%" y2="50%" id="linearGradient-1">
            <stop stop-color="#3B8492" offset="0%"></stop>
            <stop stop-color="#288AA9" offset="100%"></stop>
        </linearGradient>
        <polygon id="path-2" points="-12.0284842 45.7755568 95.6748953 49.1017805 122.399615 73.1648259 15.5692144 70.6246362"></polygon>
        <linearGradient x1="81.1389138%" y1="72.7556127%" x2="25.8179947%" y2="32.4376283%" id="linearGradient-3">
            <stop stop-color="#5FA8B6" offset="0%"></stop>
            <stop stop-color="#4B92A9" offset="100%"></stop>
        </linearGradient>
        <polygon id="path-4" points="59.0025522 126.803554 166.705932 130.129778 193.430651 154.192823 86.6002508 151.652633"></polygon>
        <linearGradient x1="50%" y1="0%" x2="50%" y2="100%" id="linearGradient-5">
            <stop stop-color="#CCCAC4" offset="0%"></stop>
            <stop stop-color="#47433F" offset="37.4003659%"></stop>
            <stop stop-color="#484543" offset="50.878131%"></stop>
            <stop stop-color="#656561" offset="71.4769591%"></stop>
            <stop stop-color="#716F6F" offset="100%"></stop>
        </linearGradient>
        <linearGradient x1="5.09062299%" y1="43.3592515%" x2="95.5213764%" y2="43.3592528%" id="linearGradient-6">
            <stop stop-color="#9A9A9A" offset="0%"></stop>
            <stop stop-color="#4D4B48" offset="54.9733412%"></stop>
            <stop stop-color="#D8D8D8" offset="100%"></stop>
        </linearGradient>
        <polygon id="path-7" points="-12.0284842 45.7755568 95.6748953 49.1017805 122.399615 73.1648259 15.5692144 70.6246362"></polygon>
        <polygon id="path-8" points="59.0025522 126.803554 166.705932 130.129778 193.430651 154.192823 86.6002508 151.652633"></polygon>
    </defs>
    <g id="Page-1" stroke="none" stroke-width="1" fill="none" fill-rule="evenodd">
        <g id="Group-24" transform="translate(7.000000, 0.000000)">
            <g id="Group-22" transform="translate(108.733461, 44.852553)">
                <g id="Rectangle-10" transform="translate(55.185565, 59.470191) rotate(48.000000) translate(-55.185565, -59.470191) ">
                    <use fill="url(#linearGradient-1)" fill-rule="evenodd" xlink:href="#path-2"></use>
                    <path stroke="#0C0C0C" stroke-width="2" d="M-9.33032067,46.8593615 L15.963168,69.6337209 L119.723542,72.1009122 L95.2779457,50.0899982 L-9.33032067,46.8593615 Z"></path>
                </g>
                <g id="Rectangle-10" transform="translate(126.216602, 140.498188) rotate(48.000000) translate(-126.216602, -140.498188) ">
                    <use fill="url(#linearGradient-3)" fill-rule="evenodd" xlink:href="#path-4"></use>
                    <path stroke="#0C0C0C" stroke-width="2" d="M61.7007157,127.887359 L86.9942044,150.661718 L190.754579,153.128909 L166.308982,131.117995 L61.7007157,127.887359 Z"></path>
                </g>
            </g>
            <path d="M90.8377453,294.259928 L251.2196,74.5277262" id="Line-20" stroke="#979797" stroke-width="5" stroke-linecap="square"></path>
            <path d="M12.260833,119.155456 L210.699399,119.155456 L210.699399,189.481797 L12.260833,189.481797 C8.99808074,178.34336 7.24987542,166.850752 7.01621702,155.003972 C6.78255861,143.157193 8.53076394,131.207687 12.260833,119.155456 Z" id="Rectangle-9" fill="url(#linearGradient-5)" transform="translate(108.847477, 154.318626) rotate(29.000000) translate(-108.847477, -154.318626) "></path>
            <path d="M205.800285,162.753193 C220.229738,165.248042 236.360689,166.279488 254.193137,165.847532 C272.025584,165.415576 286.463944,164.38413 297.508215,162.753193 L297.508215,304.106692 C277.082621,307.358398 261.760596,308.984251 251.542139,308.984251 C241.323682,308.984251 226.076398,307.358398 205.800285,304.106692 L205.800285,162.753193 Z" id="Rectangle-8" fill="url(#linearGradient-6)" transform="translate(251.654250, 235.868722) rotate(-62.000000) translate(-251.654250, -235.868722) "></path>
            <ellipse id="Oval-8" fill="#484643" transform="translate(25.231915, 108.290278) rotate(27.000000) translate(-25.231915, -108.290278) " cx="25.2319147" cy="108.290278" rx="10.1325993" ry="35.3057756"></ellipse>
            <ellipse id="Oval-9" fill="#6A727A" transform="translate(35.178769, 45.070950) rotate(-13.000000) translate(-35.178769, -45.070950) " cx="35.1787685" cy="45.0709504" rx="5.09997013" ry="45.0790806"></ellipse>
            <g id="Group-22" transform="translate(80.190927, 144.524892)">
                <g id="Rectangle-10" transform="translate(55.185565, 59.470191) rotate(48.000000) translate(-55.185565, -59.470191) ">
                    <use fill="url(#linearGradient-1)" fill-rule="evenodd" xlink:href="#path-7"></use>
                    <path stroke="#0C0C0C" stroke-width="2" d="M-9.33032067,46.8593615 L15.963168,69.6337209 L119.723542,72.1009122 L95.2779457,50.0899982 L-9.33032067,46.8593615 Z"></path>
                </g>
                <g id="Rectangle-10" transform="translate(126.216602, 140.498188) rotate(48.000000) translate(-126.216602, -140.498188) ">
                    <use fill="url(#linearGradient-3)" fill-rule="evenodd" xlink:href="#path-8"></use>
                    <path stroke="#0C0C0C" stroke-width="2" d="M61.7007157,127.887359 L86.9942044,150.661718 L190.754579,153.128909 L166.308982,131.117995 L61.7007157,127.887359 Z"></path>
                </g>
            </g>
            <g id="Group-23" transform="translate(249.843478, 68.086337) rotate(35.000000) translate(-249.843478, -68.086337) translate(242.343478, 51.586337)" stroke="#979797">
                <path d="M4.07146393,0.161673196 C10.9195026,3.42140665 14.2362332,8.72800795 14.0216557,16.0814771 C13.8070782,23.4349463 10.4903476,28.7415476 4.07146393,32.001281" id="Path-8" fill="#A3A3A3"></path>
                <ellipse id="Oval-10" fill="#383838" cx="4.07750478" cy="15.856963" rx="4.07750478" ry="15.856963"></ellipse>
            </g>
            <g id="Group-23" transform="translate(94.123951, 299.488387) rotate(214.000000) translate(-94.123951, -299.488387) translate(86.623951, 282.988387)">
                <path d="M4.07146393,0.161673196 C10.9195026,3.42140665 14.2362332,8.72800795 14.0216557,16.0814771 C13.8070782,23.4349463 10.4903476,28.7415476 4.07146393,32.001281" id="Path-8" stroke="#979797" fill="#787777"></path>
                <ellipse id="Oval-10" stroke="#787777" fill="#383838" cx="4.07750478" cy="15.856963" rx="4.07750478" ry="15.856963"></ellipse>
            </g>
        </g>
    </g>
</svg>