<?xml version="1.0" encoding="UTF-8" standalone="no"?>
<svg width="450px" height="450px" viewBox="0 0 450 450" version="1.1" xmlns="http://www.w3.org/2000/svg" xmlns:xlink="http://www.w3.org/1999/xlink">
    <!-- Generator: Sketch 45.1 (43504) - http://www.bohemiancoding.com/sketch -->
    <title>Group 40</title>
    <desc>Created with Sketch.</desc>
    <defs>
        <linearGradient x1="-26.0528421%" y1="0%" x2="156.334221%" y2="82.1284852%" id="linearGradient-1">
            <stop stop-color="#21228D" offset="3.16485969%"></stop>
            <stop stop-color="#20228C" offset="70.7930354%"></stop>
            <stop stop-color="#241E23" offset="73.654073%"></stop>
            <stop stop-color="#261F27" offset="100%"></stop>
        </linearGradient>
        <linearGradient x1="-110.547776%" y1="3.76059455%" x2="80.2840792%" y2="102.397837%" id="linearGradient-2">
            <stop stop-color="#231F7E" offset="0%"></stop>
            <stop stop-color="#241E7F" offset="67.5457432%"></stop>
            <stop stop-color="#2D2227" offset="70.9865039%"></stop>
            <stop stop-color="#2C2228" offset="100%"></stop>
        </linearGradient>
    </defs>
    <g id="Page-1" stroke="none" stroke-width="1" fill="none" fill-rule="evenodd">
        <g id="Group-37" transform="translate(49.000000, 86.000000)">
            <g id="Group-29" transform="translate(142.386792, 0.000000)">
                <polygon id="Rectangle-14" fill="url(#linearGradient-1)" transform="translate(104.253860, 86.747880) rotate(53.000000) translate(-104.253860, -86.747880) " points="77.4480264 -0.600515782 131.136441 -22.1646493 112.824938 168.3419 77.371279 195.660409"></polygon>
                <path d="M46.9103774,96.4704969 L86.6462264,116.091615" id="Line-22" stroke="#979797" stroke-width="2" stroke-linecap="square"></path>
                <path d="M91.0613208,63.7686335 L136.867925,86.1149068" id="Line-22" stroke="#979797" stroke-width="2" stroke-linecap="square"></path>
            </g>
            <g id="Group-30" transform="translate(60.707547, 159.149068)">
                <polygon id="Rectangle-15" fill="url(#linearGradient-2)" transform="translate(36.253179, 31.279730) rotate(233.000000) translate(-36.253179, -31.279730) " points="26.568034 20.7672148 48.8698413 -4.16103423 47.3330783 66.7204947 23.6365158 64.088907"></polygon>
                <path d="M31.4575472,20.1661491 L57.9481132,29.9767081" id="Line-23" stroke="#979797" stroke-linecap="square"></path>
            </g>
            <g id="Group-31" transform="translate(111.481132, 171.139752)" stroke="#000000" stroke-width="3" stroke-linecap="square">
                <path d="M3.86320755,50.6878882 L0.551886792,106.281056" id="Line-25"></path>
                <path d="M29.25,0.545031056 L4.96698113,48.507764" id="Line-24"></path>
            </g>
            <g id="Group-35" transform="translate(78.367925, 135.167702)">
                <path d="M22.0754717,20.1661491 L22.0754717,29.9767081" id="Line-31" stroke="#020202" stroke-width="2" stroke-linecap="square"></path>
                <path d="M8.83018868,17.9860248 L8.83018868,26.7065217" id="Line-32" stroke="#020202" stroke-width="2" stroke-linecap="square"></path>
                <path d="M16.5566038,14.7158385 L16.5566038,24.5263975" id="Line-33" stroke="#020202" stroke-width="2" stroke-linecap="square"></path>
                <path d="M2.75943396,10.3555901 L27.0424528,35.4270186" id="Line-27" stroke="#020202" stroke-width="2" stroke-linecap="square"></path>
                <path d="" id="Path-10" stroke="#979797"></path>
                <path d="M5.51886792,9.81055901 L55.1886792,9.81055901" id="Line-26" stroke="#000000" stroke-width="2" stroke-linecap="square"></path>
                <path d="M0,0 L33.6650943,28.886646" id="Line-28" stroke="#020202" stroke-width="2" stroke-linecap="square"></path>
                <path d="M5.51886792,22.8913043 L18.2122642,39.7872671" id="Line-29" stroke="#020202" stroke-width="2" stroke-linecap="square"></path>
                <path d="M15.4528302,24.5263975 L15.4528302,34.8819876" id="Line-30" stroke="#020202" stroke-width="2" stroke-linecap="square"></path>
            </g>
            <g id="Group-36" transform="translate(162.254717, 168.959627)" stroke="#000000" stroke-width="2" stroke-linecap="square">
                <path d="M0.551886792,7.63043478 L44.7028302,7.63043478" id="Line-34"></path>
                <path d="M44.7028302,8.17546584 L34.7688679,0.545031056" id="Line-35"></path>
            </g>
            <polygon id="Rectangle-16" fill="#A18F1B" points="113.688679 145.865328 133.264411 129.717391 174.396226 141.311167 174.396226 178.567192 145.527868 184.847923 113.688679 178.567192"></polygon>
            <polygon id="Rectangle-17" fill="#181716" transform="translate(153.399007, 149.662443) rotate(15.000000) translate(-153.399007, -149.662443) " points="128.685712 135.553454 171.352463 136.154648 178.112303 161.06932 136.341803 163.771432"></polygon>
            <g id="Group-33" transform="translate(0.000000, 83.934783)">
                <g id="Group-32">
                    <ellipse id="Oval-12" stroke="#232323" fill-opacity="0.415138134" fill="#B2ADAD" transform="translate(48.300875, 54.392699) rotate(-35.000000) translate(-48.300875, -54.392699) " cx="48.3008754" cy="54.3926993" rx="23.317217" ry="50.2771526"></ellipse>
                    <path d="M34.1570022,11.9295941 C54.14779,19.634642 68.7767009,30.9166089 78.043735,45.7754947 C87.3107691,60.6343804 89.0982859,73.3020244 83.4062853,83.7784264 C82.06832,66.8077986 76.7256155,52.5578316 67.3781717,41.0285255 C58.030728,29.4992194 46.9570048,19.7995756 34.1570022,11.9295941 Z" id="Path-9" fill="#232323"></path>
                </g>
                <path d="M53.6229414,39.5531881 C55.1109623,38.4165484 56.7666227,37.7999272 58.5899225,37.7033245 C60.4132223,37.6067218 62.0688827,38.223343 63.5569037,39.5531881 C62.179818,45.1613853 61.4912751,49.3399567 61.4912751,52.0889024 C61.4912751,54.8378481 62.179818,59.0164195 63.5569037,64.6246167 L53.6229414,64.6246167 C55.1109623,58.7954117 55.8549728,54.442814 55.8549728,51.5668236 C55.8549728,48.6908333 55.1109623,44.6862881 53.6229414,39.5531881 Z" id="Rectangle-18" fill="#232323" transform="translate(58.589923, 51.159064) rotate(233.000000) translate(-58.589923, -51.159064) "></path>
            </g>
            <g id="Group-34" transform="translate(174.396226, 148.248447)">
                <ellipse id="Oval-12" stroke="#232323" fill-opacity="0.415138134" fill="#B2ADAD" transform="translate(44.937160, 42.237654) rotate(-93.000000) translate(-44.937160, -42.237654) " cx="44.9371602" cy="42.2376539" rx="13.497539" ry="43.1834148"></ellipse>
                <path d="M25.0348597,3.03324842 C39.0617433,7.55854558 50.1925747,16.9043885 58.4273539,31.0707772 C66.6621331,45.237166 70.1191034,58.7247643 68.798265,71.5335722 C67.3898868,56.1339619 62.5325817,42.9381648 54.2263497,31.946181 C45.9201177,20.9541971 36.189621,11.3165529 25.0348597,3.03324842 Z" id="Path-9" fill="#232323" transform="translate(47.053493, 37.283410) rotate(-58.000000) translate(-47.053493, -37.283410) "></path>
                <path d="M39.2686776,27.9987 C40.6955244,27.2876266 42.2831187,26.9018728 44.0314607,26.8414389 C45.7798027,26.781005 47.367397,27.1667587 48.7942438,27.9987 C47.4737716,31.5071471 46.8135355,34.1212308 46.8135355,35.8409511 C46.8135355,37.5606714 47.4737716,40.1747551 48.7942438,43.6832022 L39.2686776,43.6832022 C40.6955244,40.0364942 41.4089478,37.313541 41.4089478,35.5143425 C41.4089478,33.7151439 40.6955244,31.2099298 39.2686776,27.9987 Z" id="Rectangle-18" fill="#232323" transform="translate(44.031461, 35.259251) rotate(179.000000) translate(-44.031461, -35.259251) "></path>
            </g>
            <ellipse id="Oval-13" fill="#282027" cx="171.636792" cy="168.959627" rx="27.0424528" ry="8.72049689"></ellipse>
        </g>
    </g>
</svg>