<?xml version="1.0" encoding="UTF-8" standalone="no"?>
<svg width="280px" height="280px" viewBox="0 0 280 280" version="1.1" xmlns="http://www.w3.org/2000/svg" xmlns:xlink="http://www.w3.org/1999/xlink">
    <!-- Generator: Sketch 45.1 (43504) - http://www.bohemiancoding.com/sketch -->
    <title>Group 12</title>
    <desc>Created with Sketch.</desc>
    <defs>
        <linearGradient x1="4.77188039%" y1="11.5505081%" x2="16.1864214%" y2="66.0521474%" id="linearGradient-1">
            <stop stop-color="#FCEBFF" offset="0%"></stop>
            <stop stop-color="#D89DFB" offset="16.5507962%"></stop>
            <stop stop-color="#1D0F6E" offset="100%"></stop>
        </linearGradient>
        <polygon id="path-2" points="25.0006957 27.6129613 100.197763 27.9946222 97.2597442 54.5571768 25.0006957 54.5571768"></polygon>
        <linearGradient x1="2.52618943%" y1="0%" x2="11.2862993%" y2="43.031151%" id="linearGradient-3">
            <stop stop-color="#D89DFB" offset="0%"></stop>
            <stop stop-color="#1D0F6E" offset="100%"></stop>
        </linearGradient>
        <polygon id="path-4" points="13.3867323 50.0590122 85.6325581 50.4256942 82.8098469 75.9457544 13.3867323 75.9457544"></polygon>
        <linearGradient x1="2.52618943%" y1="0%" x2="7.48043534%" y2="23.1053338%" id="linearGradient-5">
            <stop stop-color="#D89DFB" offset="0%"></stop>
            <stop stop-color="#1D0F6E" offset="100%"></stop>
        </linearGradient>
        <polygon id="path-6" points="1.7815319 71.6167459 71.4186471 71.9701874 68.6978606 96.5687487 1.7815319 96.5687487"></polygon>
        <linearGradient x1="16.3182983%" y1="16.7058059%" x2="26.3032932%" y2="50%" id="linearGradient-7">
            <stop stop-color="#AA95E2" offset="0%"></stop>
            <stop stop-color="#1C115F" offset="100%"></stop>
        </linearGradient>
        <polygon id="path-8" points="38.468769 13.8154958 84.5456872 12.5 78.322279 32.7320927 32.7101015 34.4120851 34.9590766 26.3683465"></polygon>
        <linearGradient x1="16.3182983%" y1="16.7058059%" x2="37.5052047%" y2="62.7899917%" id="linearGradient-9">
            <stop stop-color="#443793" offset="0%"></stop>
            <stop stop-color="#1C115F" offset="100%"></stop>
        </linearGradient>
        <polygon id="path-10" points="23.0841536 28.2385727 69.1610719 26.9230769 62.9376637 47.1551697 17.3254861 48.8351621 19.5744612 40.7914234"></polygon>
        <linearGradient x1="16.3182983%" y1="16.7058059%" x2="27.0128192%" y2="50%" id="linearGradient-11">
            <stop stop-color="#271C6A" offset="0%"></stop>
            <stop stop-color="#1D1358" offset="100%"></stop>
        </linearGradient>
        <polygon id="path-12" points="7.6995382 42.6616496 53.7764565 41.3461538 47.5530483 61.5782466 1.94087076 63.258239 4.18984581 55.2145004"></polygon>
    </defs>
    <g id="Page-1" stroke="none" stroke-width="1" fill="none" fill-rule="evenodd">
        <g id="Group-12" transform="translate(-54.000000, 0.000000)">
            <g id="Group-2">
                <polygon id="Path-4" fill="#141821" points="187.610973 147.104851 185.576923 129.461008 200.346044 114.423077 224.635324 115.459584 232.243257 148.865565"></polygon>
                <path d="M230.288462,146.634615 L226.442308,127.403846" id="Line-8" stroke="#D88714" stroke-width="4" stroke-linecap="square"></path>
                <polygon id="Path-3" fill="#D88714" points="186.538462 146.929682 201.105803 131.730769 217.851282 131.730769 233.026658 148.573338 217.851282 161.49212 201.105803 161.49212"></polygon>
                <path d="M200.480769,116.826923 L200.480769,134.134615" id="Line-7" stroke="#D88714" stroke-width="3" stroke-linecap="square"></path>
                <path d="M187.019231,130.288462 L200,115.384615" id="Line-6" stroke="#D88714" stroke-width="3" stroke-linecap="square"></path>
                <ellipse id="Oval" fill="#FFFFFF" transform="translate(221.743017, 150.316018) rotate(-18.000000) translate(-221.743017, -150.316018) " cx="221.743017" cy="150.316018" rx="10.0961538" ry="8.17307692"></ellipse>
            </g>
            <g id="Group" transform="translate(130.769231, 97.115385)" stroke-width="2" stroke-linecap="square">
                <path d="M48.0769231,27.8846154 L68.75,38.9423077" id="Line-4" stroke="#F1A73C"></path>
                <path d="M15.8653846,11.0576923 L48.0769231,27.8846154" id="Line-3" stroke="#FFFFFF"></path>
                <path d="M0.480769231,8.17307692 L16.3461538,11.5384615" id="Line-2" stroke="#FFFFFF"></path>
                <path d="M6.25,0.480769231 L15.8653846,11.0576923" id="Line" stroke="#FFFFFF"></path>
            </g>
            <g id="Group-3" transform="translate(190.384615, 25.000000)"></g>
            <g id="Group-11" transform="translate(53.846154, 25.000000)">
                <g id="Rectangle" transform="translate(62.599229, 41.085069) rotate(28.000000) translate(-62.599229, -41.085069) ">
                    <use fill="url(#linearGradient-1)" fill-rule="evenodd" xlink:href="#path-2"></use>
                    <path stroke="#FFFFFF" stroke-width="1" d="M25.5006957,28.1155055 L25.5006957,54.0571768 L96.8119987,54.0571768 L99.6397227,28.4917963 L25.5006957,28.1155055 Z"></path>
                </g>
                <g id="Rectangle" transform="translate(49.509645, 63.002383) rotate(28.000000) translate(-49.509645, -63.002383) ">
                    <use fill="url(#linearGradient-3)" fill-rule="evenodd" xlink:href="#path-4"></use>
                    <path stroke="#FFFFFF" stroke-width="1" d="M13.8867323,50.5615564 L13.8867323,75.4457544 L82.3621014,75.4457544 L85.0745177,50.9228683 L13.8867323,50.5615564 Z"></path>
                </g>
                <g id="Rectangle" transform="translate(36.600090, 84.092747) rotate(28.000000) translate(-36.600090, -84.092747) ">
                    <use fill="url(#linearGradient-5)" fill-rule="evenodd" xlink:href="#path-6"></use>
                    <path stroke="#FFFFFF" stroke-width="1" d="M2.2815319,72.1192901 L2.2815319,96.0687487 L68.2501152,96.0687487 L70.8606067,72.4673615 L2.2815319,72.1192901 Z"></path>
                </g>
                <path d="" id="Path-2" stroke="#979797"></path>
                <path d="M134.134615,121.634615 L132.211538,105.288462 L134.134615,121.634615 Z M145.673077,89.9038462 L170.673077,89.9038462 L145.673077,89.9038462 Z" id="Line-5" stroke="#D88714" stroke-width="3" stroke-linecap="square"></path>
                <path d="M140.865385,131.25 L122.596154,153.365385" id="Line-12" stroke="#D88714" stroke-width="2" stroke-linecap="square"></path>
                <g id="Group-9" transform="translate(189.898866, 15.316591)" stroke="#E3B959" fill="#B9842C">
                    <path d="M8.11473823,1.62553553 L17.5626124,50.2648854 L26.201389,1.62553553 C22.9775369,3.87525246 19.9630951,4.9915374 17.1580636,4.97439036 C14.3530321,4.95724332 11.3385903,3.84095838 8.11473823,1.62553553 Z" id="Path-5" transform="translate(17.158064, 25.945210) rotate(21.000000) translate(-17.158064, -25.945210) "></path>
                    <path d="M16.58211,6.50253105 L26.0299842,55.1418809 L34.6687607,6.50253105 C31.4449087,8.75224798 28.4304669,9.86853292 25.6254354,9.85138588 C22.8204039,9.83423884 19.8059621,8.7179539 16.58211,6.50253105 Z" id="Path-5" transform="translate(25.625435, 30.822206) rotate(42.000000) translate(-25.625435, -30.822206) "></path>
                </g>
                <g id="Group-9" transform="translate(226.424371, 69.574971) rotate(63.000000) translate(-226.424371, -69.574971) translate(200.943602, 41.209587)" stroke="#E3B959" fill="#B9842C">
                    <path d="M0.0677552259,0.961538462 L9.66559563,49.6008883 L18.4414957,0.961538462 C15.1664713,3.21125539 12.1041813,4.32754033 9.25462544,4.31039329 C6.40506961,4.29324625 3.34277954,3.17696131 0.0677552259,0.961538462 Z" id="Path-5"></path>
                    <path d="M9.88140801,2.58707399 L19.4792484,51.2264239 L28.2551484,2.58707399 C24.9801241,4.83679092 21.9178341,5.95307586 19.0682782,5.93592882 C16.2187224,5.91878178 13.1564323,4.80249684 9.88140801,2.58707399 Z" id="Path-5" transform="translate(19.068278, 26.906749) rotate(21.000000) translate(-19.068278, -26.906749) "></path>
                    <path d="M18.4831825,7.46406951 L28.0810229,56.1034194 L36.856923,7.46406951 C33.5818986,9.71378644 30.5196086,10.8300714 27.6700527,10.8129243 C24.8204969,10.7957773 21.7582068,9.67949236 18.4831825,7.46406951 Z" id="Path-5" transform="translate(27.670053, 31.783744) rotate(42.000000) translate(-27.670053, -31.783744) "></path>
                </g>
                <g id="Group-9" transform="translate(207.882050, 92.947218) rotate(126.000000) translate(-207.882050, -92.947218) translate(182.401281, 64.581833)" stroke="#E3B959" fill="#B9842C">
                    <path d="M0.0677552259,0.961538462 L9.66559563,49.6008883 L18.4414957,0.961538462 C15.1664713,3.21125539 12.1041813,4.32754033 9.25462544,4.31039329 C6.40506961,4.29324625 3.34277954,3.17696131 0.0677552259,0.961538462 Z" id="Path-5"></path>
                    <path d="M9.88140801,2.58707399 L19.4792484,51.2264239 L28.2551484,2.58707399 C24.9801241,4.83679092 21.9178341,5.95307586 19.0682782,5.93592882 C16.2187224,5.91878178 13.1564323,4.80249684 9.88140801,2.58707399 Z" id="Path-5" transform="translate(19.068278, 26.906749) rotate(21.000000) translate(-19.068278, -26.906749) "></path>
                    <path d="M18.4831825,7.46406951 L28.0810229,56.1034194 L36.856923,7.46406951 C33.5818986,9.71378644 30.5196086,10.8300714 27.6700527,10.8129243 C24.8204969,10.7957773 21.7582068,9.67949236 18.4831825,7.46406951 Z" id="Path-5" transform="translate(27.670053, 31.783744) rotate(42.000000) translate(-27.670053, -31.783744) "></path>
                </g>
                <g id="Group-9" transform="translate(179.267728, 87.138158) rotate(189.000000) translate(-179.267728, -87.138158) translate(153.786959, 58.772773)" stroke="#E3B959" fill="#B9842C">
                    <path d="M0.0677552259,0.961538462 L9.66559563,49.6008883 L18.4414957,0.961538462 C15.1664713,3.21125539 12.1041813,4.32754033 9.25462544,4.31039329 C6.40506961,4.29324625 3.34277954,3.17696131 0.0677552259,0.961538462 Z" id="Path-5"></path>
                    <path d="M9.88140801,2.58707399 L19.4792484,51.2264239 L28.2551484,2.58707399 C24.9801241,4.83679092 21.9178341,5.95307586 19.0682782,5.93592882 C16.2187224,5.91878178 13.1564323,4.80249684 9.88140801,2.58707399 Z" id="Path-5" transform="translate(19.068278, 26.906749) rotate(21.000000) translate(-19.068278, -26.906749) "></path>
                    <path d="M18.4831825,7.46406951 L28.0810229,56.1034194 L36.856923,7.46406951 C33.5818986,9.71378644 30.5196086,10.8300714 27.6700527,10.8129243 C24.8204969,10.7957773 21.7582068,9.67949236 18.4831825,7.46406951 Z" id="Path-5" transform="translate(27.670053, 31.783744) rotate(42.000000) translate(-27.670053, -31.783744) "></path>
                </g>
                <g id="Group-9" transform="translate(171.831754, 58.216955) rotate(252.000000) translate(-171.831754, -58.216955) translate(146.350984, 29.851570)" stroke="#E3B959" fill="#B9842C">
                    <path d="M0.0677552259,0.961538462 L9.66559563,49.6008883 L18.4414957,0.961538462 C15.1664713,3.21125539 12.1041813,4.32754033 9.25462544,4.31039329 C6.40506961,4.29324625 3.34277954,3.17696131 0.0677552259,0.961538462 Z" id="Path-5"></path>
                    <path d="M9.88140801,2.58707399 L19.4792484,51.2264239 L28.2551484,2.58707399 C24.9801241,4.83679092 21.9178341,5.95307586 19.0682782,5.93592882 C16.2187224,5.91878178 13.1564323,4.80249684 9.88140801,2.58707399 Z" id="Path-5" transform="translate(19.068278, 26.906749) rotate(21.000000) translate(-19.068278, -26.906749) "></path>
                    <path d="M18.4831825,7.46406951 L28.0810229,56.1034194 L36.856923,7.46406951 C33.5818986,9.71378644 30.5196086,10.8300714 27.6700527,10.8129243 C24.8204969,10.7957773 21.7582068,9.67949236 18.4831825,7.46406951 Z" id="Path-5" transform="translate(27.670053, 31.783744) rotate(42.000000) translate(-27.670053, -31.783744) "></path>
                </g>
                <g id="Group-9" transform="translate(193.647819, 38.712722) rotate(317.000000) translate(-193.647819, -38.712722) translate(168.167049, 10.347337)" stroke="#E3B959" fill="#B9842C">
                    <path d="M0.0677552259,0.806136393 L9.66559563,49.4454863 L18.4414957,0.806136393 C15.1664713,3.05585332 12.1041813,4.17213826 9.25462544,4.15499122 C6.40506961,4.13784418 3.34277954,3.02155924 0.0677552259,0.806136393 Z" id="Path-5"></path>
                    <path d="M9.88140801,2.43167192 L19.4792484,51.0710218 L28.2551484,2.43167192 C24.9801241,4.68138885 21.9178341,5.79767379 19.0682782,5.78052675 C16.2187224,5.76337971 13.1564323,4.64709477 9.88140801,2.43167192 Z" id="Path-5" transform="translate(19.068278, 26.751347) rotate(21.000000) translate(-19.068278, -26.751347) "></path>
                    <path d="M18.4831825,7.30866744 L28.0810229,55.9480173 L36.856923,7.30866744 C33.5818986,9.55838437 30.5196086,10.6746693 27.6700527,10.6575223 C24.8204969,10.6403752 21.7582068,9.52409029 18.4831825,7.30866744 Z" id="Path-5" transform="translate(27.670053, 31.628342) rotate(42.000000) translate(-27.670053, -31.628342) "></path>
                </g>
                <g id="Group-3" transform="translate(50.961538, 118.269231)" stroke="#E3B959" fill="#B9842C">
                    <g id="Group-9" transform="translate(45.560712, 13.077765)">
                        <path d="M6.92860665,1.38793094 L14.9954847,42.9176653 L22.371531,1.38793094 C19.6189095,3.30880666 17.0450888,4.2619242 14.6500688,4.24728354 C12.2550489,4.23264288 9.68122813,3.27952535 6.92860665,1.38793094 Z" id="Path-5" transform="translate(14.650069, 22.152798) rotate(21.000000) translate(-14.650069, -22.152798) "></path>
                        <path d="M14.1583024,5.55205585 L22.2251804,47.0817902 L29.6012267,5.55205585 C26.8486052,7.47293157 24.2747845,8.4260491 21.8797646,8.41140845 C19.4847446,8.39676779 16.9109239,7.44365026 14.1583024,5.55205585 Z" id="Path-5" transform="translate(21.879765, 26.316923) rotate(42.000000) translate(-21.879765, -26.316923) "></path>
                    </g>
                    <g id="Group-9" transform="translate(77.071382, 59.643131) rotate(63.000000) translate(-77.071382, -59.643131) translate(54.955997, 35.604670)">
                        <path d="M0.0578514421,0.82099035 L8.25277516,42.3507247 L15.7459016,0.82099035 C12.9495877,2.74186607 10.3349127,3.6949836 7.9018765,3.68034295 C5.46884035,3.66570229 2.85416533,2.71258476 0.0578514421,0.82099035 Z" id="Path-5"></path>
                        <path d="M8.43704225,2.20892129 L16.631966,43.7386556 L24.1250924,2.20892129 C21.3287785,4.12979701 18.7141035,5.08291455 16.2810673,5.06827389 C13.8480312,5.05363323 11.2333561,4.1005157 8.43704225,2.20892129 Z" id="Path-5" transform="translate(16.281067, 22.973788) rotate(21.000000) translate(-16.281067, -22.973788) "></path>
                        <path d="M15.7814951,6.3730462 L23.9764188,47.9027805 L31.4695452,6.3730462 C28.6732313,8.29392192 26.0585563,9.24703945 23.6255201,9.2323988 C21.192484,9.21775814 18.577809,8.26464061 15.7814951,6.3730462 Z" id="Path-5" transform="translate(23.625520, 27.137913) rotate(42.000000) translate(-23.625520, -27.137913) "></path>
                    </g>
                    <g id="Group-9" transform="translate(60.850429, 79.757915) rotate(126.000000) translate(-60.850429, -79.757915) translate(38.735044, 55.719453)">
                        <path d="M0.0578514421,0.82099035 L8.25277516,42.3507247 L15.7459016,0.82099035 C12.9495877,2.74186607 10.3349127,3.6949836 7.9018765,3.68034295 C5.46884035,3.66570229 2.85416533,2.71258476 0.0578514421,0.82099035 Z" id="Path-5"></path>
                        <path d="M8.43704225,2.20892129 L16.631966,43.7386556 L24.1250924,2.20892129 C21.3287785,4.12979701 18.7141035,5.08291455 16.2810673,5.06827389 C13.8480312,5.05363323 11.2333561,4.1005157 8.43704225,2.20892129 Z" id="Path-5" transform="translate(16.281067, 22.973788) rotate(21.000000) translate(-16.281067, -22.973788) "></path>
                        <path d="M15.7814951,6.3730462 L23.9764188,47.9027805 L31.4695452,6.3730462 C28.6732313,8.29392192 26.0585563,9.24703945 23.6255201,9.2323988 C21.192484,9.21775814 18.577809,8.26464061 15.7814951,6.3730462 Z" id="Path-5" transform="translate(23.625520, 27.137913) rotate(42.000000) translate(-23.625520, -27.137913) "></path>
                    </g>
                    <g id="Group-9" transform="translate(36.100533, 74.523516) rotate(189.000000) translate(-36.100533, -74.523516) translate(13.985148, 50.485055)">
                        <path d="M0.0578514421,0.82099035 L8.25277516,42.3507247 L15.7459016,0.82099035 C12.9495877,2.74186607 10.3349127,3.6949836 7.9018765,3.68034295 C5.46884035,3.66570229 2.85416533,2.71258476 0.0578514421,0.82099035 Z" id="Path-5"></path>
                        <path d="M8.43704225,2.20892129 L16.631966,43.7386556 L24.1250924,2.20892129 C21.3287785,4.12979701 18.7141035,5.08291455 16.2810673,5.06827389 C13.8480312,5.05363323 11.2333561,4.1005157 8.43704225,2.20892129 Z" id="Path-5" transform="translate(16.281067, 22.973788) rotate(21.000000) translate(-16.281067, -22.973788) "></path>
                        <path d="M15.7814951,6.3730462 L23.9764188,47.9027805 L31.4695452,6.3730462 C28.6732313,8.29392192 26.0585563,9.24703945 23.6255201,9.2323988 C21.192484,9.21775814 18.577809,8.26464061 15.7814951,6.3730462 Z" id="Path-5" transform="translate(23.625520, 27.137913) rotate(42.000000) translate(-23.625520, -27.137913) "></path>
                    </g>
                    <g id="Group-9" transform="translate(29.851583, 49.421673) rotate(252.000000) translate(-29.851583, -49.421673) translate(7.736198, 25.383212)">
                        <path d="M0.0578514421,0.82099035 L8.25277516,42.3507247 L15.7459016,0.82099035 C12.9495877,2.74186607 10.3349127,3.6949836 7.9018765,3.68034295 C5.46884035,3.66570229 2.85416533,2.71258476 0.0578514421,0.82099035 Z" id="Path-5"></path>
                        <path d="M8.43704225,2.20892129 L16.631966,43.7386556 L24.1250924,2.20892129 C21.3287785,4.12979701 18.7141035,5.08291455 16.2810673,5.06827389 C13.8480312,5.05363323 11.2333561,4.1005157 8.43704225,2.20892129 Z" id="Path-5" transform="translate(16.281067, 22.973788) rotate(21.000000) translate(-16.281067, -22.973788) "></path>
                        <path d="M15.7814951,6.3730462 L23.9764188,47.9027805 L31.4695452,6.3730462 C28.6732313,8.29392192 26.0585563,9.24703945 23.6255201,9.2323988 C21.192484,9.21775814 18.577809,8.26464061 15.7814951,6.3730462 Z" id="Path-5" transform="translate(23.625520, 27.137913) rotate(42.000000) translate(-23.625520, -27.137913) "></path>
                    </g>
                    <g id="Group-9" transform="translate(48.901065, 32.676954) rotate(317.000000) translate(-48.901065, -32.676954) translate(26.785681, 8.638492)">
                        <path d="M0.0578514421,0.688303407 L8.25277516,42.2180377 L15.7459016,0.688303407 C12.9495877,2.60917913 10.3349127,3.56229666 7.9018765,3.547656 C5.46884035,3.53301535 2.85416533,2.57989782 0.0578514421,0.688303407 Z" id="Path-5"></path>
                        <path d="M8.43704225,2.07623435 L16.631966,43.6059687 L24.1250924,2.07623435 C21.3287785,3.99711007 18.7141035,4.9502276 16.2810673,4.93558695 C13.8480312,4.92094629 11.2333561,3.96782876 8.43704225,2.07623435 Z" id="Path-5" transform="translate(16.281067, 22.841102) rotate(21.000000) translate(-16.281067, -22.841102) "></path>
                        <path d="M15.7814951,6.24035926 L23.9764188,47.7700936 L31.4695452,6.24035926 C28.6732313,8.16123498 26.0585563,9.11435251 23.6255201,9.09971185 C21.192484,9.0850712 18.577809,8.13195367 15.7814951,6.24035926 Z" id="Path-5" transform="translate(23.625520, 27.005226) rotate(42.000000) translate(-23.625520, -27.005226) "></path>
                    </g>
                </g>
                <g id="Group-4" transform="translate(178.846154, 124.038462)"></g>
                <g id="Group-10" transform="translate(100.000000, 61.538462)">
                    <ellipse id="Oval-2" fill="#FFFFFF" cx="92.2536355" cy="86.5384615" rx="18.215174" ry="12.5"></ellipse>
                    <path d="M79.3269231,62.9807692 L110.096154,78.3653846" id="Line-9" stroke="#F1F0F0" stroke-width="2" stroke-linecap="square"></path>
                    <path d="M110.096154,79.3269231 L115.865385,86.0576923" id="Line-10" stroke="#F1F0F0" stroke-width="2" stroke-linecap="square"></path>
                    <path d="M110.096154,78.3653846 L122.596154,81.25" id="Line-11" stroke="#F1F0F0" stroke-width="2" stroke-linecap="square"></path>
                    <g id="Group-5" transform="translate(92.307692, 59.615385)">
                        <g id="Rectangle-3" transform="translate(58.627894, 23.456043) rotate(31.000000) translate(-58.627894, -23.456043) ">
                            <use fill="url(#linearGradient-7)" fill-rule="evenodd" xlink:href="#path-8"></use>
                            <path stroke="#FFFFFF" stroke-width="1" d="M38.851143,14.3047827 L33.376026,33.8872187 L77.9488327,32.2455085 L83.8627062,13.0197028 L38.851143,14.3047827 Z"></path>
                        </g>
                        <g id="Rectangle-3" transform="translate(43.243279, 37.879119) rotate(31.000000) translate(-43.243279, -37.879119) ">
                            <use fill="url(#linearGradient-9)" fill-rule="evenodd" xlink:href="#path-10"></use>
                            <path stroke="#FFFFFF" stroke-width="1" d="M23.4665276,28.7278597 L17.9914107,48.3102956 L62.5642173,46.6685854 L68.4780908,27.4427798 L23.4665276,28.7278597 Z"></path>
                        </g>
                        <g id="Rectangle-3" transform="translate(27.858664, 52.302196) rotate(31.000000) translate(-27.858664, -52.302196) ">
                            <use fill="url(#linearGradient-11)" fill-rule="evenodd" xlink:href="#path-12"></use>
                            <path stroke="#FFFFFF" stroke-width="1" d="M8.08191227,43.1509366 L2.60679527,62.7333725 L47.1796019,61.0916624 L53.0934754,41.8658567 L8.08191227,43.1509366 Z"></path>
                        </g>
                    </g>
                    <g id="Group-8">
                        <path d="M31.7024916,58.8947622 L41.9129963,49.0973675 L34.4994636,44.6935715 C29.1619146,43.25449 25.575939,44.1716468 23.7415365,47.4450421 C21.9071341,50.7184373 22.5827526,53.4385301 25.768392,55.6053206 L31.7024916,58.8947622 Z" id="Path-6" fill="#FFFFFF" transform="translate(32.324527, 51.464570) rotate(-3.000000) translate(-32.324527, -51.464570) "></path>
                        <path d="M94.2307692,5.8263002 C94.6284525,3.41850822 95.8704417,1.86114363 97.956737,1.15420642 C100.043032,0.447269204 102.328409,0.900653709 104.812868,2.51435993 L104.812868,15.3964998 L99.5218186,16.5526407 L94.2307692,5.8263002 Z" id="Path-7" fill="#333131"></path>
                        <circle id="Oval-3" fill="#FF6F00" cx="102.971654" cy="19.1370284" r="4.71395145"></circle>
                        <g id="Group-7" transform="translate(0.000000, 82.692308)">
                            <g id="Group-6" transform="translate(0.000000, 27.884615)">
                                <path d="M0,4.28153574 C0.340871369,2.21771404 1.40543359,0.882830104 3.19368666,0.276883922 C4.98193972,-0.32906226 6.94083428,0.059553031 9.07037034,1.44272979 L9.07037034,12.484564 L4.53518517,13.4755419 L0,4.28153574 Z" id="Path-7" fill="#333131"></path>
                                <circle id="Oval-3" fill="#FF6F00" cx="7.33723311" cy="15.5789913" r="4.04052981"></circle>
                            </g>
                            <path d="M91.8269231,0.480769231 L94.7115385,8.17307692" id="Line-13" stroke="#F5F2F2" stroke-width="3" stroke-linecap="square"></path>
                            <circle id="Oval-4" fill="#FF6F00" cx="95.1923077" cy="9.61538462" r="2.88461538"></circle>
                        </g>
                    </g>
                </g>
            </g>
        </g>
    </g>
</svg>