<?xml version="1.0" encoding="UTF-8" standalone="no"?>
<svg width="450px" height="450px" viewBox="0 0 450 450" version="1.1" xmlns="http://www.w3.org/2000/svg" xmlns:xlink="http://www.w3.org/1999/xlink">
    <!-- Generator: Sketch 45.1 (43504) - http://www.bohemiancoding.com/sketch -->
    <title>Group 40</title>
    <desc>Created with Sketch.</desc>
    <defs>
        <radialGradient cx="50%" cy="92.5970134%" fx="50%" fy="92.5970134%" r="88.5636034%" gradientTransform="translate(0.500000,0.925970),scale(0.528846,1.000000),rotate(-92.754296),scale(1.000000,0.740946),translate(-0.500000,-0.925970)" id="radialGradient-1">
            <stop stop-color="#DFE7F7" offset="0%"></stop>
            <stop stop-color="#657385" offset="100%"></stop>
        </radialGradient>
        <radialGradient cx="50%" cy="92.5970134%" fx="50%" fy="92.5970134%" r="88.5636034%" gradientTransform="translate(0.500000,0.925970),scale(0.496988,1.000000),rotate(-92.930555),scale(1.000000,0.740946),translate(-0.500000,-0.925970)" id="radialGradient-2">
            <stop stop-color="#DFE7F7" offset="0%"></stop>
            <stop stop-color="#657385" offset="100%"></stop>
        </radialGradient>
    </defs>
    <g id="Page-1" stroke="none" stroke-width="1" fill="none" fill-rule="evenodd">
        <g id="Group-40" transform="translate(60.000000, 54.000000)">
            <path d="M53.5,161.5 L116.5,166.5" id="Line-36" stroke="#979797" stroke-width="2" stroke-linecap="square"></path>
            <path d="M115.5,173.5 L102.5,188.5" id="Line-37" stroke="#979797" stroke-width="3" stroke-linecap="square"></path>
            <path d="M90,165 L110.5,178.5" id="Line-38" stroke="#979797" stroke-width="2" stroke-linecap="square"></path>
            <path d="M167.5,181.5 L234.5,199.5" id="Line-39" stroke="#979797" stroke-width="2" stroke-linecap="square"></path>
            <path d="M168.5,186.5 L177.5,213.5" id="Line-40" stroke="#979797" stroke-width="2" stroke-linecap="square"></path>
            <path d="M171.5,196 L219.5,196" id="Line-41" stroke="#979797" stroke-width="2" stroke-linecap="square"></path>
            <path d="M138.5,189.5 L101.5,297.5" id="Line-42" stroke="#979797" stroke-width="3" stroke-linecap="square"></path>
            <polygon id="Rectangle-19" fill="#7E7E7E" transform="translate(189.703671, 122.744188) rotate(43.000000) translate(-189.703671, -122.744188) " points="168.898671 75.3168862 210.508672 67.7984118 205.253217 165.096952 169.06408 177.689964"></polygon>
            <g id="Group-38" transform="translate(146.000000, 115.000000)" fill="#000000">
                <polygon id="Rectangle-20" transform="translate(28.509002, 22.362828) rotate(35.000000) translate(-28.509002, -22.362828) " points="16.7198026 11.324087 44.1239983 6.64256076 39.6231509 32.5894734 12.894006 38.0830951"></polygon>
                <polygon id="Rectangle-21" transform="translate(7.940990, 32.152573) rotate(-67.000000) translate(-7.940990, -32.152573) " points="4.545008 26.0182973 11.4229671 28.5748984 11.2113754 38.2868491 4.45901237 36.3060197"></polygon>
                <polygon id="Rectangle-22" transform="translate(41.496074, 8.952122) rotate(25.000000) translate(-41.496074, -8.952122) " points="33.0297603 5.39886379 52.1180258 5.20723473 49.8600588 12.5972266 30.8741222 12.6970094"></polygon>
                <polygon id="Rectangle-21" transform="translate(22.794267, 38.457435) rotate(-67.000000) translate(-22.794267, -38.457435) " points="19.6671595 32.596035 26.2349915 34.7262677 26.2458196 44.3188341 19.342715 42.2672288"></polygon>
            </g>
            <polygon id="Rectangle-19" fill="#1FC1E8" transform="translate(254.897901, 56.790340) rotate(43.000000) translate(-254.897901, -56.790340) " points="231.09267 9.36303833 278.703132 1.84456395 272.689803 99.1431045 231.281932 111.736116"></polygon>
            <g id="Group-39" transform="translate(47.000000, 186.000000)">
                <polygon id="Rectangle-23" fill="#0F7AA4" transform="translate(42.811400, 47.238584) rotate(43.000000) translate(-42.811400, -47.238584) " points="28.3785132 9.60707629 58.1522938 1.32215055 53.6424889 78.5072147 27.4705056 93.155018"></polygon>
                <polygon id="Rectangle-24" fill="#595758" transform="translate(56.381950, 32.672514) rotate(-46.000000) translate(-56.381950, -32.672514) " points="26 18.4314995 78.4492773 17.3806776 86.7639004 47.9643508 40.6877595 46.0629508"></polygon>
                <g id="Group-38" transform="translate(65.000000, 24.433962) rotate(180.000000) translate(-65.000000, -24.433962) translate(48.000000, 10.000000)" fill="#000000">
                    <polygon id="Rectangle-20" transform="translate(18.288794, 14.345965) rotate(35.000000) translate(-18.288794, -14.345965) " points="10.7259111 7.26450867 28.3059612 4.26126539 25.4186251 20.9064546 8.27162648 24.4306648"></polygon>
                    <polygon id="Rectangle-21" transform="translate(5.094220, 20.626179) rotate(-67.000000) translate(-5.094220, -20.626179) " points="2.91566551 16.6909832 7.32794114 18.3310669 7.19220306 24.5613749 2.8604985 23.2906541"></polygon>
                    <polygon id="Rectangle-22" transform="translate(26.620123, 5.742871) rotate(25.000000) translate(-26.620123, -5.742871) " points="21.1889028 3.46342206 33.4342052 3.3404902 31.9856981 8.08123972 19.8060407 8.14525128"></polygon>
                    <polygon id="Rectangle-21" transform="translate(14.622738, 24.670807) rotate(-67.000000) translate(-14.622738, -24.670807) " points="12.6166684 20.910664 16.8299945 22.2772283 16.8369409 28.4309502 12.4085342 27.114826"></polygon>
                </g>
            </g>
            <polygon id="Rectangle-25" fill="#2E302A" points="107 175.369602 132.940557 148.802765 170 165.243055 170 204.369602 142.56473 215.739236 107 204.369602"></polygon>
            <polygon id="Rectangle-26" fill="#D6D9CF" points="133 148.680247 170.999132 165.246472 170.999132 196 133 183.114035"></polygon>
            <ellipse id="Oval-14" fill="url(#radialGradient-1)" transform="translate(54.589671, 187.784832) rotate(6.000000) translate(-54.589671, -187.784832) " cx="54.5896713" cy="187.784832" rx="52" ry="27.5"></ellipse>
            <ellipse id="Oval-14" fill="url(#radialGradient-2)" transform="translate(215.428558, 218.849945) rotate(-6.000000) translate(-215.428558, -218.849945) " cx="215.428558" cy="218.849945" rx="41.5" ry="20.625"></ellipse>
            <ellipse id="Oval-15" fill="#BFB5B8" transform="translate(173.521748, 190.291560) rotate(-6.000000) translate(-173.521748, -190.291560) " cx="173.521748" cy="190.29156" rx="21" ry="11"></ellipse>
        </g>
    </g>
</svg>